<svg width="40" height="40" viewBox="0 0 40 40" fill="none" xmlns="http://www.w3.org/2000/svg">
<g id="designe" clip-path="url(#clip0_15_791)">
<path id="Vector" d="M25 2.5H40V40H0V0.722656L25 25.7227V2.5ZM2.5 37.5H33.2227L2.5 6.77734V37.5ZM34.2773 35L36.7773 37.5H37.5V5H27.5V7.5H32.5V10H27.5V12.5H32.5V15H27.5V17.5H35V20H27.5V22.5H32.5V25H27.5V27.5H32.5V30H29.2773L31.7773 32.5H35V35H34.2773ZM7.5 20.7227L19.2773 32.5H7.5V20.7227ZM10 26.7773V30H13.2227L10 26.7773Z" fill="black"/>
</g>
<defs>
<clipPath id="clip0_15_791">
<rect width="40" height="40" fill="white"/>
</clipPath>
</defs>
</svg>
