<svg width="100" height="100" viewBox="0 0 100 100" fill="none" xmlns="http://www.w3.org/2000/svg">
<g id="Group">
<path id="Vector" d="M76.5625 0H23.4375C10.4933 0 0 10.4933 0 23.4375V76.5625C0 89.5067 10.4933 100 23.4375 100H76.5625C89.5067 100 100 89.5067 100 76.5625V23.4375C100 10.4933 89.5067 0 76.5625 0Z" fill="#242938"/>
<path id="Vector_2" d="M47.4418 10.9586C47.2738 10.9738 46.739 11.0273 46.2578 11.0652C35.1617 12.0656 24.7679 18.0531 18.1847 27.2555C14.5195 32.3723 12.1746 38.1762 11.289 44.3242C10.9761 46.4703 10.9379 47.1043 10.9379 50.0137C10.9379 52.9234 10.9761 53.5574 11.2894 55.7031C13.4121 70.3734 23.8519 82.6996 38.0105 87.2664C40.5461 88.0836 43.2187 88.641 46.2582 88.977C47.4422 89.1066 52.5586 89.1066 53.7425 88.977C58.989 88.3965 63.4336 87.0984 67.8172 84.8605C68.489 84.5172 68.6191 84.4254 68.5273 84.3492C68.4664 84.3031 65.6023 80.4617 62.166 75.8187L55.9191 67.3801L48.091 55.7949C43.784 49.4258 40.2406 44.2172 40.2097 44.2172C40.1793 44.2098 40.1488 49.357 40.1336 55.6422C40.1105 66.6469 40.1031 67.0898 39.9656 67.3492C39.7672 67.7234 39.6144 67.8762 39.2933 68.0445C39.0492 68.1664 38.8351 68.1895 37.682 68.1895H36.3609L36.0093 67.968C35.7917 67.8316 35.6149 67.639 35.4976 67.4105L35.3375 67.0668L35.3531 51.7551L35.3758 36.4355L35.6125 36.1375C35.7347 35.9773 35.9945 35.7711 36.1777 35.6719C36.4906 35.5191 36.6129 35.5039 37.934 35.5039C39.4922 35.5039 39.7515 35.5648 40.1566 36.0078C40.2711 36.1301 44.5093 42.5145 49.5804 50.2047C54.7143 57.9887 59.8513 65.7706 64.9914 73.5504L71.1773 82.9211L71.4906 82.7148C74.2625 80.9125 77.1953 78.3465 79.5168 75.6734C84.4578 69.9992 87.6426 63.0805 88.7117 55.7031C89.0246 53.5574 89.0629 52.9234 89.0629 50.0137C89.0629 47.1039 89.0246 46.4703 88.7117 44.3242C86.5887 29.6539 76.1488 17.3281 61.9902 12.7613C59.4929 11.9516 56.8355 11.3941 53.857 11.0582C53.1238 10.9816 48.0758 10.898 47.4422 10.959M63.4336 34.5875C63.8 34.7707 64.098 35.1219 64.2051 35.4883C64.266 35.6871 64.2812 39.9332 64.266 49.502L64.2429 63.2332L61.8222 59.5215L59.3937 55.8102V45.8289C59.3937 39.3758 59.4242 35.748 59.4699 35.5723C59.5922 35.1449 59.8594 34.809 60.2261 34.6102C60.539 34.45 60.6539 34.4344 61.8527 34.4344C62.9832 34.4344 63.1816 34.45 63.4336 34.5875Z" fill="white"/>
</g>
</svg>
