<svg width="100" height="100" viewBox="0 0 100 100" fill="none" xmlns="http://www.w3.org/2000/svg">
<g id="Property 1=react">
<path id="Vector" d="M50 37.5C73.2625 37.5 87.5 45.5938 87.5 50C87.5 54.4062 73.2625 62.5 50 62.5C26.7375 62.5 12.5 54.4062 12.5 50C12.5 45.5938 26.7375 37.5 50 37.5ZM50 31.25C25.8375 31.25 6.25 39.6438 6.25 50C6.25 60.3562 25.8375 68.75 50 68.75C74.1625 68.75 93.75 60.3562 93.75 50C93.75 39.6438 74.1625 31.25 50 31.25Z" fill="#0288D1"/>
<path id="Vector_2" d="M50 43.75C48.7639 43.75 47.5555 44.1166 46.5277 44.8033C45.4999 45.4901 44.6988 46.4662 44.2258 47.6082C43.7527 48.7503 43.6289 50.0069 43.8701 51.2193C44.1113 52.4317 44.7065 53.5453 45.5806 54.4194C46.4547 55.2935 47.5683 55.8888 48.7807 56.1299C49.9931 56.3711 51.2497 56.2473 52.3918 55.7742C53.5338 55.3012 54.5099 54.5001 55.1967 53.4723C55.8834 52.4445 56.25 51.2361 56.25 50C56.25 48.3424 55.5915 46.7527 54.4194 45.5806C53.2473 44.4085 51.6576 43.75 50 43.75Z" fill="#0288D1"/>
<path id="Vector_3" d="M32.6812 17.2094C38.9844 17.2094 51.2344 27.1375 60.825 43.75C72.4562 63.8969 72.5656 80.2719 68.75 82.475C68.3098 82.7032 67.8171 82.811 67.3219 82.7875C61.0187 82.7875 48.7656 72.8625 39.175 56.25C27.5437 36.1031 27.4344 19.7281 31.25 17.525C31.6911 17.2962 32.1849 17.1853 32.6812 17.2094ZM32.6781 10.9625C31.0855 10.9337 29.5139 11.3295 28.125 12.1094C19.1562 17.2875 21.6812 38.45 33.7625 59.375C44.025 77.1562 57.8875 89.0406 67.325 89.0406C68.9171 89.067 70.4876 88.669 71.875 87.8875C80.8437 82.7125 78.3187 61.55 66.2375 40.625C55.975 22.8437 42.1125 10.9594 32.675 10.9594L32.6781 10.9625Z" fill="#0288D1"/>
<path id="Vector_4" d="M67.3219 17.2093C67.8172 17.1858 68.3098 17.2936 68.75 17.5218C72.5656 19.7281 72.4563 36.1031 60.825 56.25C51.2313 72.8625 38.9813 82.7906 32.6781 82.7906C32.1829 82.8141 31.6902 82.7063 31.25 82.4781C27.4344 80.2687 27.5438 63.8937 39.175 43.75C48.7688 27.1375 61.0188 17.2093 67.3219 17.2093ZM67.3219 10.9593C57.8844 10.9593 44.025 22.8468 33.7594 40.625C21.6844 61.55 19.1563 82.7125 28.125 87.8875C29.5133 88.6695 31.085 89.0675 32.6781 89.0406C42.1156 89.0406 55.975 77.1531 66.2407 59.375C78.3156 38.45 80.8438 17.2875 71.875 12.1125C70.4867 11.3305 68.9151 10.9324 67.3219 10.9593Z" fill="#0288D1"/>
</g>
</svg>
