<svg width="50" height="51" viewBox="0 0 50 51" fill="none" xmlns="http://www.w3.org/2000/svg">
<g id="services" clip-path="url(#clip0_292_253)">
<path id="Vector" d="M10.9375 3.45288C8.8655 3.45288 6.87836 4.27598 5.41323 5.74111C3.9481 7.20624 3.125 9.19338 3.125 11.2654V33.1404C3.125 35.2124 3.9481 37.1995 5.41323 38.6647C6.87836 40.1298 8.8655 40.9529 10.9375 40.9529H17.1625C17.3926 40.6429 17.6454 40.3505 17.9188 40.0779L20.1687 37.8279H10.9375C9.6943 37.8279 8.50201 37.334 7.62294 36.4549C6.74386 35.5759 6.25 34.3836 6.25 33.1404V15.9529H37.5V16.0341C38.5389 15.9222 39.587 15.9264 40.625 16.0466V11.2654C40.625 9.19338 39.8019 7.20624 38.3368 5.74111C36.8716 4.27598 34.8845 3.45288 32.8125 3.45288H10.9375ZM27.9094 21.3404L26.1063 19.5341C25.961 19.3889 25.7885 19.2736 25.5987 19.195C25.4089 19.1164 25.2054 19.0759 25 19.0759C24.7946 19.0759 24.5911 19.1164 24.4013 19.195C24.2115 19.2736 24.039 19.3889 23.8937 19.5341C23.7485 19.6794 23.6332 19.8519 23.5546 20.0417C23.476 20.2315 23.4355 20.4349 23.4355 20.6404C23.4355 20.8458 23.476 21.0493 23.5546 21.2391C23.6332 21.4289 23.7485 21.6014 23.8937 21.7466L26.2219 24.0716C26.6719 23.1112 27.2344 22.2008 27.9094 21.3404ZM19.8563 21.7466C20.0015 21.6014 20.1168 21.4289 20.1954 21.2391C20.274 21.0493 20.3145 20.8458 20.3145 20.6404C20.3145 20.4349 20.274 20.2315 20.1954 20.0417C20.1168 19.8519 20.0015 19.6794 19.8563 19.5341C19.711 19.3889 19.5385 19.2736 19.3487 19.195C19.1589 19.1164 18.9554 19.0759 18.75 19.0759C18.5446 19.0759 18.3411 19.1164 18.1513 19.195C17.9615 19.2736 17.789 19.3889 17.6437 19.5341L11.3937 25.7841C11.2482 25.9293 11.1328 26.1017 11.054 26.2915C10.9753 26.4814 10.9347 26.6849 10.9347 26.8904C10.9347 27.0959 10.9753 27.2994 11.054 27.4892C11.1328 27.6791 11.2482 27.8515 11.3937 27.9966L17.6437 34.2466C17.9371 34.54 18.3351 34.7049 18.75 34.7049C19.1649 34.7049 19.5629 34.54 19.8563 34.2466C20.1496 33.9532 20.3145 33.5553 20.3145 33.1404C20.3145 32.7255 20.1496 32.3275 19.8563 32.0341L14.7094 26.8904L19.8563 21.7466ZM40.2875 19.1529C41.4313 19.2841 41.7594 20.6529 40.9438 21.4716L37.8969 24.5185C37.0134 25.402 36.517 26.6003 36.517 27.8498C36.517 28.4684 36.6389 29.081 36.8756 29.6526C37.1124 30.2242 37.4594 30.7435 37.8969 31.181C38.3343 31.6185 38.8537 31.9655 39.4253 32.2022C39.9968 32.439 40.6095 32.5609 41.2281 32.5609C42.4776 32.5609 43.6759 32.0645 44.5594 31.181L47.6063 28.1341C48.4219 27.3185 49.7937 27.6466 49.925 28.7904C50.1426 30.6476 49.883 32.5296 49.1706 34.2585C48.4582 35.9873 47.3166 37.5059 45.8537 38.6706C44.3909 39.8354 42.6551 40.6077 40.8106 40.9146C38.9661 41.2216 37.0737 41.053 35.3125 40.4248L26.7938 48.9466C26.3563 49.3841 25.8369 49.7311 25.2654 49.9679C24.6938 50.2046 24.0812 50.3265 23.4625 50.3265C22.8438 50.3265 22.2312 50.2046 21.6596 49.9679C21.0881 49.7311 20.5687 49.3841 20.1312 48.9466C19.6938 48.5092 19.3468 47.9898 19.11 47.4182C18.8733 46.8467 18.7514 46.2341 18.7514 45.6154C18.7514 44.9967 18.8733 44.3841 19.11 43.8125C19.3468 43.2409 19.6938 42.7216 20.1312 42.2841L28.65 33.7654C28.0216 32.0039 27.853 30.1112 28.1601 28.2664C28.4671 26.4216 29.2398 24.6856 30.4049 23.2226C31.57 21.7597 33.089 20.6182 34.8184 19.906C36.5477 19.1939 38.4301 18.9346 40.2875 19.1529Z" fill="#0D99FF"/>
</g>
<defs>
<clipPath id="clip0_292_253">
<rect width="50" height="50" fill="white" transform="translate(0 0.327881)"/>
</clipPath>
</defs>
</svg>
