<svg width="50" height="51" viewBox="0 0 50 51" fill="none" xmlns="http://www.w3.org/2000/svg">
<g id="services">
<path id="Vector" d="M42.1875 37.8279C41.2212 37.8308 40.2795 38.1327 39.4916 38.6922C38.7038 39.2518 38.1085 40.0415 37.7875 40.9529H33.7781L31.3437 36.0841C35.0234 33.9091 37.5 29.9123 37.5 25.3279C37.5 20.7435 35.0234 16.7466 31.3437 14.5716L33.7781 9.70288H37.7875C38.1085 10.6143 38.7038 11.404 39.4916 11.9635C40.2795 12.5231 41.2212 12.825 42.1875 12.8279C44.7719 12.8279 46.875 10.7248 46.875 8.14038C46.875 5.55601 44.7719 3.45288 42.1875 3.45288C41.2212 3.45575 40.2795 3.75768 39.4916 4.31722C38.7038 4.87676 38.1085 5.66646 37.7875 6.57788H33.7781C33.1973 6.57609 32.6276 6.73704 32.1335 7.04247C31.6395 7.34791 31.2408 7.78562 30.9828 8.30601L28.4719 13.3263C27.3688 13.0076 26.2063 12.8279 25 12.8279C23.7937 12.8279 22.6312 13.0076 21.5281 13.3279L19.0156 8.30288C18.7571 7.78284 18.358 7.34561 17.8637 7.04073C17.3694 6.73585 16.7995 6.57551 16.2188 6.57788H12.2141C11.893 5.66621 11.2974 4.87633 10.5093 4.31677C9.72114 3.75721 8.77907 3.45543 7.8125 3.45288C5.22812 3.45288 3.125 5.55601 3.125 8.14038C3.125 10.7248 5.22812 12.8279 7.8125 12.8279C8.7788 12.825 9.72053 12.5231 10.5084 11.9635C11.2962 11.404 11.8915 10.6143 12.2125 9.70288H16.2219L18.6562 14.5716C14.975 16.7466 12.5 20.7435 12.5 25.3279C12.5 29.9123 14.975 33.9091 18.6562 36.0841L16.2219 40.9529H12.2125C11.8915 40.0415 11.2962 39.2518 10.5084 38.6922C9.72053 38.1327 8.7788 37.8308 7.8125 37.8279C5.22812 37.8279 3.125 39.931 3.125 42.5154C3.125 45.0998 5.22812 47.2029 7.8125 47.2029C8.7788 47.2 9.72053 46.8981 10.5084 46.3385C11.2962 45.779 11.8915 44.9893 12.2125 44.0779H16.2219C16.8027 44.0797 17.3724 43.9187 17.8665 43.6133C18.3605 43.3079 18.7592 42.8701 19.0172 42.3498L21.5281 37.3294C22.6312 37.6482 23.7937 37.8279 25 37.8279C26.2063 37.8279 27.3688 37.6482 28.4719 37.3279L30.9828 42.3498C31.2408 42.8701 31.6395 43.3079 32.1335 43.6133C32.6276 43.9187 33.1973 44.0797 33.7781 44.0779H37.7875C38.1085 44.9893 38.7038 45.779 39.4916 46.3385C40.2795 46.8981 41.2212 47.2 42.1875 47.2029C44.7719 47.2029 46.875 45.0998 46.875 42.5154C46.875 39.931 44.7719 37.8279 42.1875 37.8279ZM42.1875 6.57788C42.5898 6.59588 42.9697 6.76836 43.248 7.05942C43.5263 7.35047 43.6817 7.73767 43.6817 8.14038C43.6817 8.5431 43.5263 8.93029 43.248 9.22135C42.9697 9.5124 42.5898 9.68488 42.1875 9.70288C41.7731 9.70288 41.3757 9.53826 41.0826 9.24523C40.7896 8.95221 40.625 8.55478 40.625 8.14038C40.625 7.72598 40.7896 7.32855 41.0826 7.03553C41.3757 6.7425 41.7731 6.57788 42.1875 6.57788ZM7.8125 9.70288C7.41019 9.68488 7.03032 9.5124 6.75199 9.22135C6.47367 8.93029 6.31833 8.5431 6.31833 8.14038C6.31833 7.73767 6.47367 7.35047 6.75199 7.05942C7.03032 6.76836 7.41019 6.59588 7.8125 6.57788C8.21481 6.59588 8.59468 6.76836 8.87301 7.05942C9.15133 7.35047 9.30667 7.73767 9.30667 8.14038C9.30667 8.5431 9.15133 8.93029 8.87301 9.22135C8.59468 9.5124 8.21481 9.68488 7.8125 9.70288ZM7.8125 44.0779C7.41019 44.0599 7.03032 43.8874 6.75199 43.5963C6.47367 43.3053 6.31833 42.9181 6.31833 42.5154C6.31833 42.1127 6.47367 41.7255 6.75199 41.4344C7.03032 41.1434 7.41019 40.9709 7.8125 40.9529C8.21481 40.9709 8.59468 41.1434 8.87301 41.4344C9.15133 41.7255 9.30667 42.1127 9.30667 42.5154C9.30667 42.9181 9.15133 43.3053 8.87301 43.5963C8.59468 43.8874 8.21481 44.0599 7.8125 44.0779ZM16.0719 25.3279C16.0719 20.406 20.0766 16.3998 25 16.3998C29.9234 16.3998 33.9281 20.4044 33.9281 25.3279C33.9281 30.2513 29.9234 34.256 25 34.256C20.0766 34.256 16.0719 30.2513 16.0719 25.3279ZM42.1875 44.0779C41.7852 44.0599 41.4053 43.8874 41.127 43.5963C40.8487 43.3053 40.6933 42.9181 40.6933 42.5154C40.6933 42.1127 40.8487 41.7255 41.127 41.4344C41.4053 41.1434 41.7852 40.9709 42.1875 40.9529C42.5898 40.9709 42.9697 41.1434 43.248 41.4344C43.5263 41.7255 43.6817 42.1127 43.6817 42.5154C43.6817 42.9181 43.5263 43.3053 43.248 43.5963C42.9697 43.8874 42.5898 44.0599 42.1875 44.0779ZM29.0469 19.9482L31.25 22.2029L23.4375 30.0154L18.75 25.3279L21.0063 23.0716L23.4437 25.606L29.0469 19.9482Z" fill="#0D99FF"/>
</g>
</svg>
