<svg width="55" height="56" viewBox="0 0 55 56" fill="none" xmlns="http://www.w3.org/2000/svg">
<g id="Skills">
<path id="Vector" fill-rule="evenodd" clip-rule="evenodd" d="M27.5 3.9375C32.2591 3.9375 36.9113 5.34874 40.8684 7.99276C44.8255 10.6368 47.9096 14.3948 49.7308 18.7917C51.5521 23.1885 52.0286 28.0267 51.1001 32.6944C50.1717 37.362 47.88 41.6496 44.5148 45.0148C41.1496 48.38 36.862 50.6717 32.1944 51.6001C27.5267 52.5286 22.6885 52.0521 18.2917 50.2308C13.8948 48.4096 10.1368 45.3255 7.49276 41.3684C4.84874 37.4113 3.4375 32.7591 3.4375 28C3.4375 21.6182 5.97265 15.4978 10.4852 10.9852C14.9978 6.47265 21.1182 3.9375 27.5 3.9375Z" fill="#CC6699"/>
<path id="Vector_2" d="M42.5941 14.2362C41.5044 9.96341 34.418 8.56435 27.7114 10.9397C23.5112 12.3508 19.6307 14.5767 16.292 17.4898C12.5984 20.9445 12.0089 23.9523 12.2513 25.2087C13.1106 29.6431 19.183 32.5409 21.6803 34.6911V34.7031C20.9447 35.0658 15.5547 37.7969 14.2897 40.5812C12.9594 43.5237 14.5011 45.6343 15.5238 45.9179C17.0591 46.2876 18.6717 46.1673 20.1353 45.5739C21.5988 44.9805 22.8399 43.9439 23.6844 42.6094C24.3828 41.5283 24.8197 40.2995 24.9605 39.0202C25.1014 37.7409 24.9422 36.4464 24.4956 35.2394C25.6983 34.932 26.949 34.8602 28.1789 35.0279C32.4002 35.5212 33.2286 38.1561 33.0705 39.2595C32.9961 39.6523 32.838 40.0244 32.607 40.3507C32.3759 40.6769 32.0774 40.9496 31.7316 41.1501C31.4359 41.334 31.3448 41.3959 31.3706 41.5334C31.4067 41.7311 31.5425 41.7242 31.7952 41.6812C32.4295 41.4814 32.9885 41.0942 33.3984 40.5704C33.8083 40.0467 34.0499 39.4111 34.0914 38.7473C34.1928 36.1692 31.7161 33.2714 27.3298 33.3453C26.0558 33.3078 24.7844 33.482 23.5675 33.8609L23.3819 33.6547C20.6697 30.762 15.6578 28.715 15.8692 24.8254C15.9466 23.4109 16.4381 19.6881 25.4942 15.1712C32.9192 11.4708 38.8627 12.49 39.8905 14.7467C41.3583 17.9711 36.7142 23.9609 29.0039 24.8254C28.1517 24.9984 27.2715 24.9774 26.4286 24.7637C25.5856 24.5501 24.8016 24.1494 24.1347 23.5914C23.7291 23.1445 23.6689 23.1256 23.5177 23.2081C23.2719 23.3439 23.4283 23.7392 23.5177 23.9729C23.813 24.505 24.2115 24.9727 24.6899 25.3487C25.1683 25.7247 25.717 26.0014 26.3038 26.1626C29.3353 26.8204 32.497 26.5077 35.3409 25.2689C40.0177 23.4659 43.6648 18.4386 42.5941 14.2362ZM22.7184 36.0145C23.0581 37.1916 23.0408 38.443 22.6686 39.6101C22.6285 39.7316 22.5844 39.8519 22.5363 39.9711C22.4881 40.0902 22.436 40.2048 22.3798 40.3148C22.0887 40.9056 21.7142 41.4514 21.2678 41.9356C19.8705 43.4601 17.9163 44.0376 17.0792 43.5512C16.1752 43.027 16.6272 40.8769 18.248 39.1633C19.4938 37.9323 20.9295 36.9097 22.5002 36.1348L22.7184 36.0145Z" fill="white"/>
</g>
</svg>
