<svg width="100" height="100" viewBox="0 0 100 100" fill="none" xmlns="http://www.w3.org/2000/svg">
<g id="Property 1=strapi" clip-path="url(#clip0_10_765)">
<path id="Vector" d="M0 34.6668C0 18.3246 0 10.1535 5.07695 5.07695C10.1539 0.00039041 18.3242 0 34.6668 0H65.3336C81.6754 0 89.8461 0 94.9234 5.07695C100 10.1535 100 18.3242 100 34.6668V65.3336C100 81.6754 100 89.8461 94.923 94.9234C89.8461 100 81.6758 100 65.3332 100H34.6672C18.325 100 10.1539 100 5.07734 94.923C0.000781193 89.8461 0 81.6758 0 65.3332V34.6668Z" fill="#4945FF"/>
<path id="Vector_2" d="M69 30.3332H35.3333V47.5H52.5V64.6664H69.6665V31C69.6665 30.6316 69.368 30.3332 69 30.3332Z" fill="white"/>
<path id="Vector_3" d="M51.8333 47.5H52.5V48.1668H51.8333V47.5Z" fill="white"/>
<path id="Vector_4" d="M35.3332 47.5H51.8332C52.2016 47.5 52.5 47.7984 52.5 48.1664V64.6664H36C35.9125 64.6664 35.8258 64.6492 35.7449 64.6158C35.664 64.5823 35.5905 64.5332 35.5285 64.4713C35.4666 64.4095 35.4175 64.336 35.384 64.2551C35.3505 64.1742 35.3332 64.0875 35.3332 64V47.5ZM52.5 64.6664H69.6664L53.0688 81.264C52.859 81.4742 52.5 81.3254 52.5 81.0289V64.6664ZM35.3332 47.5H18.9711C18.6742 47.5 18.5258 47.1406 18.7355 46.9308L35.3332 30.3332V47.5Z" fill="#9593FF"/>
</g>
<defs>
<clipPath id="clip0_10_765">
<rect width="100" height="100" fill="white"/>
</clipPath>
</defs>
</svg>
